<?xml version="1.0" encoding="UTF-8"?>
<!DOCTYPE svg PUBLIC "-//W3C//DTD SVG 1.1//EN" "http://www.w3.org/Graphics/SVG/1.1/DTD/svg11.dtd">
<svg xmlns="http://www.w3.org/2000/svg" version="1.1" width="960px" height="1920px" style="shape-rendering:geometricPrecision; text-rendering:geometricPrecision; image-rendering:optimizeQuality; fill-rule:evenodd; clip-rule:evenodd" xmlns:xlink="http://www.w3.org/1999/xlink">
<g><path style="opacity:1" fill="#000000" d="M 489.5,-0.5 C 500.5,-0.5 511.5,-0.5 522.5,-0.5C 581.921,9.11732 624.421,41.1173 650,95.5C 656.237,111.921 659.57,128.921 660,146.5C 662.895,201.53 659.562,256.197 650,310.5C 635.912,386.604 623.246,462.937 612,539.5C 606.969,588.842 609.302,637.842 619,686.5C 625.966,722.031 634.966,757.031 646,791.5C 666.131,848.559 685.464,905.892 704,963.5C 731.945,1055.22 749.612,1148.89 757,1244.5C 762.817,1325.72 758.483,1406.38 744,1486.5C 729.731,1578.58 704.731,1667.58 669,1753.5C 651.412,1793.36 630.745,1831.36 607,1867.5C 587.123,1892 561.623,1907.5 530.5,1914C 519.425,1916.27 508.425,1918.1 497.5,1919.5C 480.5,1919.5 463.5,1919.5 446.5,1919.5C 398.681,1917.34 358.847,1898.34 327,1862.5C 313.166,1846.19 301.833,1828.19 293,1808.5C 203.083,1593.58 177.75,1371.25 217,1141.5C 227.821,1091.7 241.487,1042.7 258,994.5C 281.546,927.859 305.88,861.526 331,795.5C 345.272,756.683 357.939,717.35 369,677.5C 379.296,626.628 382.629,575.295 379,523.5C 377.83,503.126 376.163,482.793 374,462.5C 368.169,413.852 362.502,365.185 357,316.5C 352.234,270.278 350.234,223.945 351,177.5C 351.924,143.205 359.591,110.539 374,79.5C 384.28,60.5541 398.113,44.7208 415.5,32C 424.501,27.1682 433.168,21.8349 441.5,16C 456.629,7.56945 472.629,2.06945 489.5,-0.5 Z M 462.5,47.5 C 491.203,46.1025 513.703,57.1025 530,80.5C 549.506,114.85 559.506,151.85 560,191.5C 560.138,234.528 558.971,277.528 556.5,320.5C 556.248,329.277 557.081,337.944 559,346.5C 563.452,370.323 554.286,385.823 531.5,393C 524.578,394.543 517.578,395.543 510.5,396C 487.167,396.333 463.833,396.667 440.5,397C 426.092,398.457 411.759,400.457 397.5,403C 392.5,403.667 387.5,403.667 382.5,403C 381.484,402.481 380.818,401.647 380.5,400.5C 366.94,332.451 361.774,263.784 365,194.5C 366.529,173.073 368.862,151.74 372,130.5C 385.855,84.803 416.022,57.1364 462.5,47.5 Z M 445.5,518.5 C 458.449,518.061 471.283,519.061 484,521.5C 498.251,516.714 512.084,517.547 525.5,524C 533.303,531.104 537.803,539.938 539,550.5C 539.863,566.046 539.363,581.546 537.5,597C 542.631,614.938 535.964,623.438 517.5,622.5C 496.67,621.782 475.836,621.115 455,620.5C 439.315,621.979 423.648,623.645 408,625.5C 402.138,626.179 396.805,624.846 392,621.5C 387.888,614.349 387.388,606.849 390.5,599C 380.501,552.438 398.834,525.605 445.5,518.5 Z M 421.5,758.5 C 439.555,758.163 457.555,758.996 475.5,761C 494.935,763.628 514.268,766.795 533.5,770.5C 546.07,871.327 559.904,971.994 575,1072.5C 597.447,1251.8 586.78,1429.14 543,1604.5C 529.58,1659.85 512.913,1714.19 493,1767.5C 480.434,1798.83 462.268,1826.33 438.5,1850C 407.82,1860.2 380.153,1854.86 355.5,1834C 340.548,1820.24 328.381,1804.41 319,1786.5C 260.994,1667.15 227.661,1541.15 219,1408.5C 211.043,1315.52 217.376,1223.52 238,1132.5C 254.886,1059.84 276.22,988.507 302,918.5C 318.607,873.344 335.607,828.344 353,783.5C 361.329,775.247 371.163,769.414 382.5,766C 395.405,762.251 408.405,759.751 421.5,758.5 Z"/></g>
</svg>
