<?xml version='1.0' encoding='utf-8'?>
<svg xmlns="http://www.w3.org/2000/svg" viewBox="0 0 272.57 204.6"> <defs> <filter id="a"> <feGaussianBlur stdDeviation="1.054277"/> </filter> </defs> <g transform="rotate(-7.6018 135.48 102.3)"> <g fill="none" stroke-linecap="round" stroke-linejoin="round"> <path d="m185.98 20.895-142.25 97.948c-12.741 8.7916-22.684 19.034-22.641 34.454-1.0523 20.363-2.5738 22.885 21.657 31.501 21.341 7.0561 27.654 3.7362 45.775-8.8596 43.736-27.991 84.452-56.737 126.5-85.151 27.406-20.418 44.711-29.588 33.47-46.759l-16.243-19.688c-9.9566-14.072-21.637-7.4567-33.47 0.9844l-100.41 68.908c-18.231 13.65-16.745 15.372-21.165 31.501-1.2035 13.474 3.91 14.667 12.305 19.688 17.256 6.923 20.395 3.967 39.868-8.8596l95.979-65.463" stroke="#000" stroke-width="7.063"/> <g transform="matrix(.9991 0 0 1 -1.5582 20)" stroke="#fff"> <path d="m185.96 0.8952-142.25 97.948c-12.741 8.7916-22.684 19.034-22.641 34.454-1.0523 20.363-2.5738 22.885 21.657 31.501 21.34 7.0561 27.654 3.7362 45.775-8.8596 43.736-27.991 84.452-56.737 126.5-85.151 27.406-20.418 44.711-29.588 33.47-46.759l-16.243-19.688c-9.9566-14.072-21.637-7.4567-33.47 0.9844l-100.41 68.908c-18.231 13.65-16.745 15.372-21.165 31.501-1.2035 13.474 3.91 14.667 12.305 19.688 17.256 6.923 20.395 3.9669 39.868-8.8596l95.979-65.463" filter="url(#a)" stroke-width="3"/> <path d="m185.96 0.8952-142.25 97.948c-12.741 8.7916-22.684 19.034-22.641 34.454-1.0523 20.363-2.5738 22.885 21.657 31.501 21.341 7.0561 27.654 3.7362 45.775-8.8596 43.736-27.991 84.452-56.737 126.5-85.151 27.406-20.418 44.711-29.588 33.47-46.759l-16.243-19.688c-9.9566-14.072-21.637-7.4567-33.47 0.9844l-100.41 68.908c-18.231 13.65-16.745 15.372-21.165 31.501-1.2035 13.474 3.91 14.667 12.305 19.688 17.256 6.923 20.395 3.967 39.868-8.8596l95.979-65.463" stroke-width=".869"/> </g> </g> </g> </svg>